<svg
  width="24"
  height="24"
  viewBox="0 0 24 24"
  fill="none"
  xmlns="http://www.w3.org/2000/svg"
>
  <path
    fill-rule="evenodd"
    clip-rule="evenodd"
    d="M2.5991 5.99879C6.07326 5.9556 9.41368 4.65295 11.9999 2.33279C14.586 4.65338 17.9264 5.95646 21.4007 5.99999C21.5327 6.77999 21.5999 7.58399 21.5999 8.40119C21.5999 14.6712 17.5919 20.0052 11.9999 21.9816C6.4079 20.004 2.3999 14.67 2.3999 8.39999C2.3999 7.58159 2.4683 6.77999 2.5991 5.99879ZM16.4483 10.4484C16.6669 10.2221 16.7878 9.91895 16.7851 9.60431C16.7824 9.28968 16.6562 8.9887 16.4337 8.76621C16.2112 8.54372 15.9102 8.41752 15.5956 8.41478C15.2809 8.41205 14.9778 8.533 14.7515 8.75159L10.7999 12.7032L9.2483 11.1516C9.02198 10.933 8.71886 10.8121 8.40422 10.8148C8.08958 10.8175 7.78861 10.9437 7.56612 11.1662C7.34363 11.3887 7.21743 11.6897 7.21469 12.0043C7.21196 12.3189 7.33291 12.6221 7.5515 12.8484L9.9515 15.2484C10.1765 15.4734 10.4817 15.5997 10.7999 15.5997C11.1181 15.5997 11.4233 15.4734 11.6483 15.2484L16.4483 10.4484Z"
    fill="#6172F3"
  />
</svg>