<svg
  width="24"
  height="24"
  viewBox="0 0 24 24"
  fill="none"
  xmlns="http://www.w3.org/2000/svg">
  <path
    fill-rule="evenodd"
    clip-rule="evenodd"
    d="M14.3998 15.6C14.0815 15.6 13.7763 15.7264 13.5513 15.9515C13.3262 16.1765 13.1998 16.4817 13.1998 16.8C13.1998 17.1183 13.3262 17.4235 13.5513 17.6485C13.7763 17.8736 14.0815 18 14.3998 18H20.3998C20.7181 18 21.0233 17.8736 21.2483 17.6485C21.4734 17.4235 21.5998 17.1183 21.5998 16.8V10.8C21.5998 10.4817 21.4734 10.1765 21.2483 9.95147C21.0233 9.72642 20.7181 9.59999 20.3998 9.59999C20.0815 9.59999 19.7763 9.72642 19.5513 9.95147C19.3262 10.1765 19.1998 10.4817 19.1998 10.8V13.9032L14.0482 8.7516C13.8232 8.52663 13.518 8.40025 13.1998 8.40025C12.8816 8.40025 12.5764 8.52663 12.3514 8.7516L9.59981 11.5032L4.4482 6.35159C4.22188 6.13301 3.91876 6.01205 3.60412 6.01479C3.28949 6.01752 2.98851 6.14372 2.76602 6.36621C2.54353 6.5887 2.41733 6.88968 2.4146 7.20431C2.41186 7.51895 2.53282 7.82207 2.7514 8.04839L8.75141 14.0484C8.97644 14.2734 9.28161 14.3997 9.59981 14.3997C9.918 14.3997 10.2232 14.2734 10.4482 14.0484L13.1998 11.2968L17.503 15.6H14.3998Z"
    fill="#6172F3"
  />
</svg>