<svg
  width="24"
  height="24"
  viewBox="0 0 24 24"
  fill="none"
  xmlns="http://www.w3.org/2000/svg"
>
  <path
    fill-rule="evenodd"
    clip-rule="evenodd"
    d="M8.4 2.39999C7.76348 2.39999 7.15303 2.65285 6.70294 3.10294C6.25286 3.55302 6 4.16347 6 4.79999V19.2C6 19.8365 6.25286 20.447 6.70294 20.8971C7.15303 21.3471 7.76348 21.6 8.4 21.6H15.6C16.2365 21.6 16.847 21.3471 17.2971 20.8971C17.7471 20.447 18 19.8365 18 19.2V4.79999C18 4.16347 17.7471 3.55302 17.2971 3.10294C16.847 2.65285 16.2365 2.39999 15.6 2.39999H8.4ZM12 19.2C12.3183 19.2 12.6235 19.0736 12.8485 18.8485C13.0736 18.6235 13.2 18.3183 13.2 18C13.2 17.6817 13.0736 17.3765 12.8485 17.1515C12.6235 16.9264 12.3183 16.8 12 16.8C11.6817 16.8 11.3765 16.9264 11.1515 17.1515C10.9264 17.3765 10.8 17.6817 10.8 18C10.8 18.3183 10.9264 18.6235 11.1515 18.8485C11.3765 19.0736 11.6817 19.2 12 19.2Z"
    fill="#6172F3"
  />
</svg>
