<svg
  width="24"
  height="24"
  viewBox="0 0 24 24"
  fill="none"
  xmlns="http://www.w3.org/2000/svg"
>
  <path
    fill-rule="evenodd"
    clip-rule="evenodd"
    d="M22.0002 12.0306L22.0002 15.1429C22.0002 18.93 18.9301 22 15.143 22H8.85732C7.57846 22 6.38138 21.6499 5.35666 21.0403L8.41771 17.9791L13.4344 17.9792C15.2933 17.9792 16.2195 17.719 17.1484 16.8413C17.6071 16.4079 18.8694 15.1592 20.9353 13.0955L21.1445 12.8864C21.2152 12.8158 21.2867 12.7443 21.3591 12.6718L21.9191 12.1117C21.946 12.0848 21.9731 12.0577 22.0002 12.0306ZM12.6066 8.99686L2.95979 18.6434C2.35025 17.6187 2.00018 16.4217 2.00018 15.1429L2 13.4077L4.59367 13.4077C4.74966 13.4077 4.89886 13.344 5.00667 13.2312C6.05444 12.1355 6.81828 11.3442 7.29818 10.8571C7.44556 10.7076 7.59957 10.5458 7.75679 10.3823L7.89225 10.242C8.50467 9.61065 9.15031 8.99698 9.63301 8.99698L12.6066 8.99686ZM22.0002 8.85714L22 10.6289L19.2329 10.6289C19.0769 10.6289 18.9277 10.6927 18.8199 10.8054C17.7721 11.9011 17.0083 12.6925 16.5284 13.1795C15.7704 13.9487 14.8371 15.0397 14.1935 15.0397L11.3574 15.0394L21.0406 5.35655C21.6501 6.38125 22.0002 7.57832 22.0002 8.85714ZM15.143 2C16.422 2 17.6191 2.35014 18.6439 2.95978L15.546 6.05743L10.3921 6.05749C8.53323 6.05749 7.60702 6.31764 6.67812 7.19536C6.25764 7.59268 5.16193 8.67497 3.39101 10.4422L3.19514 10.6377C2.93041 10.902 2.6514 11.1808 2.3581 11.4741L2.00024 11.8321L2.00018 8.85714C2.00018 5.07005 5.07022 2 8.85732 2L15.143 2Z"
    fill="#0BC1A5"
  />
</svg>