<svg
  width="55"
  height="18"
  viewBox="0 0 55 18"
  fill="none"
  xmlns="http://www.w3.org/2000/svg"
>
  <path
    d="M0.483887 14V1.0625H2.8833L8.84229 10.2031H8.87744V1.0625H11.2681V14H8.86865L2.90967 4.8418H2.87451V14H0.483887ZM17.0249 14.1406C16.1108 14.1406 15.3198 13.9443 14.6519 13.5518C13.9839 13.1533 13.4653 12.5967 13.0962 11.8818C12.7271 11.167 12.5425 10.3291 12.5425 9.36816C12.5425 8.4248 12.7241 7.5957 13.0874 6.88086C13.4507 6.16016 13.9634 5.59766 14.6255 5.19336C15.2935 4.7832 16.0786 4.57812 16.981 4.57812C17.8657 4.57812 18.6304 4.78027 19.2749 5.18457C19.9253 5.58301 20.4233 6.13965 20.769 6.85449C21.1147 7.56934 21.2876 8.4043 21.2876 9.35938V9.91309H13.4478V8.42773H19.1519C19.1401 8.00586 19.0376 7.63965 18.8442 7.3291C18.6509 7.0127 18.3931 6.7666 18.0708 6.59082C17.7485 6.40918 17.3853 6.31836 16.981 6.31836C16.5415 6.31836 16.1577 6.42383 15.8296 6.63477C15.5015 6.83984 15.2466 7.11523 15.0649 7.46094C14.8892 7.80078 14.7983 8.16992 14.7925 8.56836V9.94824C14.7925 10.3994 14.8804 10.8096 15.0562 11.1787C15.2378 11.5479 15.4956 11.8438 15.8296 12.0664C16.1694 12.2891 16.5767 12.4004 17.0513 12.4004C17.3735 12.4004 17.6724 12.3477 17.9478 12.2422C18.2231 12.1367 18.4604 11.9873 18.6597 11.7939C18.8589 11.6006 18.9995 11.3721 19.0815 11.1084H21.1909C21.0796 11.7178 20.8364 12.251 20.4614 12.708C20.0864 13.1592 19.603 13.5107 19.0112 13.7627C18.4253 14.0146 17.7632 14.1406 17.0249 14.1406ZM24.4077 4.71875L26.3677 8.09375L28.354 4.71875H30.7798L27.8618 9.35938L30.8237 14H28.4155L26.3677 10.7129L24.3374 14H21.9116L24.8735 9.35938L21.9819 4.71875H24.4077ZM35.561 14.0439C34.9985 14.0439 34.5005 13.9561 34.0669 13.7803C33.6392 13.6045 33.3022 13.3291 33.0562 12.9541C32.8159 12.5791 32.6958 12.0928 32.6958 11.4951V2.41602H34.9897V11.1172C34.9897 11.416 35.0337 11.6416 35.1216 11.7939C35.2095 11.9463 35.3325 12.0488 35.4907 12.1016C35.6489 12.1484 35.8306 12.1719 36.0356 12.1719C36.1646 12.1719 36.2847 12.1689 36.396 12.1631C36.5073 12.1572 36.5981 12.1484 36.6685 12.1367L36.8179 13.9824C36.689 13.9941 36.519 14.0059 36.3081 14.0176C36.0972 14.0352 35.8481 14.0439 35.561 14.0439ZM31.3774 6.54688V4.71875H36.7651V6.54688H31.3774ZM39.4897 14.123C39.0972 14.123 38.769 13.9883 38.5054 13.7188C38.2417 13.4492 38.1099 13.1182 38.1099 12.7256C38.1099 12.333 38.2417 12.0049 38.5054 11.7412C38.769 11.4775 39.0972 11.3457 39.4897 11.3457C39.8882 11.3457 40.2192 11.4775 40.4829 11.7412C40.7466 12.0049 40.8813 12.333 40.8872 12.7256C40.8813 13.1123 40.7437 13.4434 40.4741 13.7188C40.2104 13.9883 39.8823 14.123 39.4897 14.123ZM41.1157 17.7969V15.8809H41.6431C41.9243 15.8809 42.1353 15.8193 42.2759 15.6963C42.4165 15.5732 42.4868 15.3711 42.4868 15.0898V4.71875H44.772V15.248C44.772 16.0859 44.5405 16.7188 44.0776 17.1465C43.6147 17.5801 42.9321 17.7969 42.0298 17.7969H41.1157ZM43.6294 3.29492C43.2603 3.29492 42.9438 3.16895 42.6802 2.91699C42.4165 2.66504 42.2876 2.36035 42.2935 2.00293C42.2876 1.64551 42.4165 1.34082 42.6802 1.08887C42.9438 0.836914 43.2603 0.710938 43.6294 0.710938C43.9985 0.710938 44.312 0.836914 44.5698 1.08887C44.8276 1.34082 44.9595 1.64551 44.9653 2.00293C44.9595 2.36035 44.8276 2.66504 44.5698 2.91699C44.312 3.16895 43.9985 3.29492 43.6294 3.29492ZM53.9126 7.63672H51.7593C51.7534 7.23242 51.5952 6.91309 51.2847 6.67871C50.98 6.43848 50.5845 6.31836 50.0981 6.31836C49.6528 6.31836 49.2866 6.40918 48.9995 6.59082C48.7124 6.77246 48.5688 7.01855 48.5688 7.3291C48.5688 7.58105 48.6714 7.79199 48.8765 7.96191C49.0815 8.13184 49.3862 8.26074 49.7905 8.34863L51.4429 8.69141C52.3159 8.87891 52.981 9.1748 53.438 9.5791C53.9009 9.9834 54.1323 10.5283 54.1323 11.2139C54.1323 11.8291 53.9595 12.3564 53.6138 12.7959C53.2739 13.2295 52.8081 13.5635 52.2163 13.7979C51.6245 14.0322 50.9507 14.1494 50.1948 14.1494C49.4097 14.1494 48.7183 14.0322 48.1206 13.7979C47.5229 13.5635 47.0483 13.2207 46.6968 12.7695C46.3452 12.3125 46.1431 11.7559 46.0903 11.0996H48.3667C48.4136 11.5391 48.5952 11.8672 48.9116 12.084C49.2339 12.3008 49.6587 12.4092 50.186 12.4092C50.6841 12.4092 51.0796 12.3213 51.3726 12.1455C51.6714 11.9639 51.8208 11.7148 51.8208 11.3984C51.8208 11.1172 51.7065 10.9033 51.478 10.7568C51.2554 10.6045 50.9565 10.4902 50.5815 10.4141L49.0259 10.0889C48.1118 9.90137 47.4292 9.58203 46.978 9.13086C46.5269 8.67383 46.3013 8.09961 46.3013 7.4082C46.3013 6.82812 46.4565 6.32715 46.7671 5.90527C47.0835 5.4834 47.5229 5.1582 48.0854 4.92969C48.6538 4.70117 49.313 4.58691 50.063 4.58691C51.1997 4.58691 52.1196 4.85645 52.8228 5.39551C53.5259 5.93457 53.8892 6.68164 53.9126 7.63672Z"
    fill="#565B76"
  />
</svg>