<?xml version="1.0" standalone="no"?>
<!DOCTYPE svg PUBLIC "-//W3C//DTD SVG 20010904//EN"
 "http://www.w3.org/TR/2001/REC-SVG-20010904/DTD/svg10.dtd">
<svg version="1.0" xmlns="http://www.w3.org/2000/svg"
 width="700.000000pt" height="700.000000pt" viewBox="0 0 700.000000 700.000000"
 preserveAspectRatio="xMidYMid meet">
<metadata>
Created by potrace 1.14, written by Peter Selinger 2001-2017
</metadata>
<g transform="translate(0.000000,700.000000) scale(0.100000,-0.100000)"
fill="#000000" stroke="none">
<path d="M2478 6415 c-2 -1 -39 -5 -83 -9 -76 -6 -108 -10 -165 -21 -14 -3
-38 -8 -55 -10 -49 -9 -246 -65 -300 -87 -409 -163 -731 -423 -965 -778 -152
-232 -248 -478 -301 -775 -20 -111 -22 -158 -24 -654 l-3 -534 28 29 c111 117
1304 1296 1372 1355 174 152 372 244 593 274 22 3 54 7 70 10 96 14 314 18
1060 19 l832 1 446 446 c246 246 447 452 447 458 0 6 -4 11 -10 11 -5 0 -31
13 -57 28 -114 66 -289 134 -454 177 -74 20 -70 19 -169 35 -41 6 -86 14 -100
17 -23 5 -2157 13 -2162 8z"/>
<path d="M4735 4036 c-771 -771 -1404 -1406 -1408 -1412 -4 -8 114 -10 426 -9
471 2 457 0 557 63 109 69 206 161 665 637 143 148 316 327 385 398 69 71 131
136 138 143 14 14 67 45 77 44 3 0 193 0 424 0 l418 0 -2 358 c-2 196 -6 368
-9 382 -2 14 -7 43 -11 65 -29 200 -84 380 -175 572 -32 67 -64 130 -72 141
-12 17 -124 -93 -1413 -1382z"/>
<path d="M2749 4364 c-43 -13 -108 -46 -138 -70 -114 -91 -165 -137 -271 -244
-125 -127 -547 -561 -649 -668 -187 -196 -260 -267 -288 -279 -25 -10 -119
-13 -427 -13 l-394 0 3 -342 c3 -415 13 -502 87 -753 11 -38 24 -79 28 -90 5
-11 17 -40 27 -65 10 -25 44 -98 76 -163 l58 -117 1405 1404 c772 772 1404
1406 1404 1408 0 2 -197 4 -439 4 -329 0 -449 -3 -482 -12z"/>
<path d="M5780 2857 c-653 -650 -794 -786 -869 -847 -120 -97 -287 -174 -451
-208 -92 -20 -129 -25 -270 -38 -36 -4 -441 -7 -901 -8 l-835 -1 -447 -447
-447 -447 109 -55 c60 -30 133 -65 162 -76 30 -11 63 -25 74 -29 11 -5 29 -11
40 -14 11 -3 58 -16 105 -30 47 -14 103 -28 125 -31 22 -4 47 -9 55 -11 20 -6
66 -13 160 -22 41 -4 554 -8 1140 -7 968 0 1075 2 1175 18 583 93 1066 402
1385 886 57 87 168 296 182 345 4 11 16 45 27 75 21 53 58 179 67 223 19 98
36 193 40 229 4 35 14 1129 10 1128 -1 0 -287 -285 -636 -633z"/>
</g>
</svg>
